<svg id="visual" viewBox="0 0 900 600" width="900" height="600" xmlns="http://www.w3.org/2000/svg" xmlns:xlink="http://www.w3.org/1999/xlink" version="1.1"><rect x="0" y="0" width="900" height="600" fill="#fff"></rect><path d="M0 352L21.5 338.2C43 324.3 86 296.7 128.8 284.7C171.7 272.7 214.3 276.3 257.2 295.8C300 315.3 343 350.7 385.8 366C428.7 381.3 471.3 376.7 514.2 370.8C557 365 600 358 642.8 365.5C685.7 373 728.3 395 771.2 390C814 385 857 353 878.5 337L900 321L900 601L878.5 601C857 601 814 601 771.2 601C728.3 601 685.7 601 642.8 601C600 601 557 601 514.2 601C471.3 601 428.7 601 385.8 601C343 601 300 601 257.2 601C214.3 601 171.7 601 128.8 601C86 601 43 601 21.5 601L0 601Z" fill="#0066FF" stroke-linecap="round" stroke-linejoin="miter"></path></svg>